<svg id="Capa_1" enable-background="new 0 0 512 512" height="512" viewBox="0 0 512 512" width="512" xmlns="http://www.w3.org/2000/svg"><g><path d="m512 256c0-141.484-114.497-256-256-256-141.483 0-256 114.496-256 256 0 137.856 110.237 253.735 251.891 255.95 2.406.108 7.632.007 7.733.006.042.001.22-.002.267-.003 139.746-2.07 252.109-115.949 252.109-255.953zm-256-241c133.193 0 241 107.788 241 241 0 55.528-18.667 108.18-53.009 150.819-.597-26.873-18.022-50.218-43.757-58.367l-48.521-15.362c-2.746-2.35-2.023-1.338-46.692-23.47v-20.787c19.475-13.828 32.961-35.657 35.441-60.827 9.247-1.568 16.312-9.636 16.312-19.322 0-14.366 0-61.595 0-76.331 0-16.807-13.673-30.48-30.48-30.48h-.774c-.144 0-.261-.117-.261-.261 0-16.807-13.673-30.48-30.48-30.48h-79.192c-33.299 0-60.389 27.09-60.389 60.389 0 4.142 3.358 7.5 7.5 7.5s7.5-3.358 7.5-7.5c0-25.028 20.361-45.389 45.389-45.389h79.192c8.536 0 15.48 6.944 15.48 15.48 0 8.415 6.846 15.261 15.261 15.261h.774c8.536 0 15.48 6.944 15.48 15.48v42.682h-8.379c-4.682 0-8.491-3.809-8.491-8.49v-8.751c0-16.634-16.239-28.369-32.031-23.149-23.778 7.859-49.97 7.861-73.779-.004-15.795-5.216-32.028 6.519-32.028 23.15v8.754c0 4.682-3.809 8.491-8.49 8.491h-8.379v-8.853c0-4.142-3.358-7.5-7.5-7.5s-7.5 3.358-7.5 7.5v42.502c0 9.687 7.064 17.754 16.312 19.323 2.479 25.171 15.966 46.999 35.44 60.827v20.795c-44.577 22.088-43.988 21.158-46.685 23.47l-48.497 15.354c-25.735 8.149-43.16 31.494-43.757 58.367-34.343-42.641-53.01-95.293-53.01-150.821 0-133.194 107.788-241 241-241zm-85.986 376.08 5.829-5.818c6.084-6.073 7.523-15.288 3.582-22.927l-9.247-17.929 30.306-14.889c-3.225 13.489-3.12 28.313-1.567 42.207.001.011.003.022.004.032 3.879 34.642 18.02 73.936 32.152 105.794-23.273-23.42-54.375-57.87-62.208-81.751-.545-1.66-.104-3.468 1.149-4.719zm.182-201.045h8.379c12.953 0 23.49-10.538 23.49-23.491v-8.754c0-6.371 6.206-10.925 12.353-8.897 26.814 8.857 56.348 8.856 83.162-.006 6.075-2.007 12.324 2.505 12.324 8.907v8.751c0 12.953 10.538 23.49 23.491 23.49h8.379v18.649c0 2.536-2.063 4.598-4.599 4.598-6.034 0-11.06 4.736-11.441 10.783-2.314 36.695-32.951 65.439-69.749 65.439-36.797 0-67.435-28.744-69.749-65.439-.381-6.046-5.407-10.783-11.441-10.783-2.536 0-4.598-2.062-4.598-4.598v-18.649zm85.797 305.25c-4.867-9.762-11.439-23.669-18.013-39.806l12.316-48.44h11.407l12.308 48.424c-6.586 16.171-13.166 30.092-18.018 39.822zm-9.859-133.964c-4.245 3.546-12.953 10.82-19.761 16.506-1.421 1.187-3.456 1.18-4.862.025l-7.927-9.801c-1.311-13.147-1.181-27.681 2.925-40.126zm-22.208 32.409c1.912 0 3.823-.309 5.67-.895l6.686 8.45-7.553 29.707c-4.326-12.473-8.226-25.478-11.093-38.368 2.031.723 4.156 1.106 6.29 1.106zm39.851-1.69h-15.683l-6.103-7.713 14.825-12.384 13.41 11.466zm22.115-14.971-18.461-15.785 28.131-33.083c4.009 12.358 4.125 26.674 2.865 39.55l-7.664 9.392c-1.422 1.146-3.459 1.133-4.871-.074zm-29.907-72.565c12.069 0 23.588-2.557 34.036-7.152v14.208l-33.269 39.126-34.804-39.234v-14.101c10.448 4.596 21.967 7.153 34.037 7.153zm27.278 126.466-7.577-29.809 6.812-9.117c1.91.632 3.891.962 5.875.962 2.072 0 4.136-.364 6.116-1.048-2.862 13.032-6.785 26.203-11.226 39.012zm-200.283-7.228v-15.498c0-20.9 13.388-39.182 33.313-45.49l39.985-12.659c.4.934-.011.033 9.816 19.117.935 1.812.594 3.996-.848 5.435l-5.829 5.818c-5.283 5.273-7.125 12.941-4.805 20.01 9.573 29.181 47.233 69.591 73.08 94.878-54.878-6.382-105.53-31.228-144.712-71.611zm201.311 71.612c13.939-13.635 31.41-31.751 46.005-50.099 2.579-3.242 2.041-7.96-1.201-10.539-3.242-2.578-7.959-2.041-10.539 1.201-11.777 14.806-25.545 29.512-37.677 41.701 14.175-31.94 28.369-71.367 32.212-106.116.001-.013.003-.026.004-.038 1.523-13.801 1.613-28.499-1.595-41.946l30.306 14.889-9.247 17.929c-3.941 7.641-2.501 16.854 3.583 22.928l5.828 5.817c1.253 1.251 1.693 3.059 1.149 4.719-1.175 3.582-2.963 7.605-5.314 11.958-1.969 3.645-.61 8.195 3.034 10.163 3.645 1.969 8.195.61 10.163-3.034 2.775-5.136 4.918-9.986 6.37-14.413 2.319-7.069.478-14.736-4.805-20.01l-5.828-5.817c-1.442-1.44-1.783-3.625-.849-5.436 9.755-18.945 9.422-18.197 9.818-19.121l39.998 12.663c19.926 6.309 33.313 24.59 33.313 45.491v15.498c-39.094 40.293-89.713 65.219-144.728 71.612z"/></g></svg>